<?xml version="1.0" encoding="iso-8859-1"?>
<!-- Generator: Adobe Illustrator 17.0.0, SVG Export Plug-In . SVG Version: 6.00 Build 0)  -->
<!DOCTYPE svg PUBLIC "-//W3C//DTD SVG 1.1//EN" "http://www.w3.org/Graphics/SVG/1.1/DTD/svg11.dtd">
<svg version="1.1" id="Layer_1" xmlns="http://www.w3.org/2000/svg" xmlns:xlink="http://www.w3.org/1999/xlink" x="0px" y="0px"
	 width="32px" height="32px" viewBox="0 0 32 32" style="enable-background:new 0 0 32 32;" xml:space="preserve">
<g>
	<defs>
		<rect id="SVGID_1_" width="32" height="32"/>
	</defs>
	<clipPath id="SVGID_2_">
		<use xlink:href="#SVGID_1_"  style="overflow:visible;"/>
	</clipPath>
	<g style="clip-path:url(#SVGID_2_);">
		<defs>
			<rect id="SVGID_3_" width="32" height="32"/>
		</defs>
		<clipPath id="SVGID_4_">
			<use xlink:href="#SVGID_3_"  style="overflow:visible;"/>
		</clipPath>
		<path style="clip-path:url(#SVGID_4_);" d="M10.198,29.756c-0.411,0.719-0.161,1.635,0.558,2.046
			c0.235,0.135,0.49,0.199,0.743,0.199c0.521,0,1.027-0.272,1.303-0.757l2.559-4.478c-1.037-0.171-2.039-0.439-2.999-0.798
			L10.198,29.756z"/>
		<path style="clip-path:url(#SVGID_4_);" d="M32,11.207h-9.625C19.75,11.207,18,9.483,18,6.897C18,3.088,14.866,0,11,0
			S4,3.088,4,6.897V7.7l-4,2.4l4.068,2.441C4.75,19.532,10.725,25,18,25c0.318,0,0.63-0.026,0.943-0.047l-2.745,4.803
			c-0.411,0.719-0.161,1.635,0.558,2.046c0.235,0.135,0.49,0.199,0.743,0.199c0.521,0,1.027-0.272,1.303-0.757l4-7
			c0.021-0.036,0.033-0.075,0.051-0.113C28.189,22.185,32,17.141,32,11.207 M11,9.1c-1.105,0-2-0.895-2-2s0.895-2,2-2s2,0.895,2,2
			S12.105,9.1,11,9.1"/>
	</g>
</g>
</svg>
