<?xml version="1.0" encoding="iso-8859-1"?>
<!-- Generator: Adobe Illustrator 17.0.0, SVG Export Plug-In . SVG Version: 6.00 Build 0)  -->
<!DOCTYPE svg PUBLIC "-//W3C//DTD SVG 1.1//EN" "http://www.w3.org/Graphics/SVG/1.1/DTD/svg11.dtd">
<svg version="1.1" id="Layer_1" xmlns="http://www.w3.org/2000/svg" xmlns:xlink="http://www.w3.org/1999/xlink" x="0px" y="0px"
	 width="32px" height="32px" viewBox="0 0 32 32" style="enable-background:new 0 0 32 32;" xml:space="preserve">
<g>
	<defs>
		<rect id="SVGID_1_" width="32" height="32"/>
	</defs>
	<clipPath id="SVGID_2_">
		<use xlink:href="#SVGID_1_"  style="overflow:visible;"/>
	</clipPath>
	<g style="clip-path:url(#SVGID_2_);">
		<defs>
			<rect id="SVGID_3_" width="32" height="32"/>
		</defs>
		<clipPath id="SVGID_4_">
			<use xlink:href="#SVGID_3_"  style="overflow:visible;"/>
		</clipPath>
		<path style="clip-path:url(#SVGID_4_);" d="M31.414,14.586l-6-6c-0.781-0.781-2.047-0.781-2.828,0s-0.781,2.047,0,2.828L27.172,16
			l-4.586,4.586c-0.781,0.781-0.781,2.047,0,2.828C22.976,23.805,23.488,24,24,24c0.512,0,1.023-0.195,1.414-0.586l6-6
			C32.195,16.633,32.195,15.367,31.414,14.586"/>
		<path style="clip-path:url(#SVGID_4_);" d="M9.414,8.586c-0.781-0.781-2.047-0.781-2.828,0l-6,6c-0.781,0.781-0.781,2.047,0,2.828
			l6,6C6.976,23.805,7.488,24,8,24s1.023-0.195,1.414-0.586c0.781-0.781,0.781-2.047,0-2.828L4.828,16l4.586-4.586
			C10.195,10.633,10.195,9.367,9.414,8.586"/>
		<path style="clip-path:url(#SVGID_4_);" d="M20.549,0.076c-1.055-0.293-2.168,0.311-2.473,1.375l-8,28
			c-0.302,1.061,0.313,2.168,1.375,2.473C11.635,31.974,11.819,32,12.002,32c0.869,0,1.67-0.572,1.922-1.451l8-28
			C22.227,1.488,21.611,0.381,20.549,0.076"/>
	</g>
</g>
</svg>
