<svg xmlns="http://www.w3.org/2000/svg" version="1" viewBox="0 0 512 512"><path d="M148.4 34.1c-7.1 2.7-13.7 8.8-17.1 15.7-2.7 5.6-2.8 6.1-3.1 25.9l-.3 20.3H92.7c-19.4.1-37 .3-39.2.7-2.2.3-7.1 1.7-11 3-18.8 6.8-32.7 21.3-40.2 41.8-1.7 4.7-1.8 10.9-2 96-.2 74.5 0 92 1.1 96.5 3.5 13.9 8.2 22.3 17.6 31.5 9 8.7 17.4 13.5 29.5 16.6 6 1.6 11.6 1.8 42.9 1.9 19.8 0 36.1.1 36.2.3.1.1.5 3.7.8 8 .8 11 4.7 25.8 8.2 31.4.8 1.2 1.4 2.7 1.4 3.3 0 1.2 8.3 14.1 11.5 17.9 2.6 3.1 9.4 9.9 13.1 13.1 3.9 3.4 17.1 12 18.4 12 .6 0 2.1.6 3.3 1.4 1.2.8 4.9 2.3 8.2 3.4 5.6 1.9 7.9 2.5 14.5 4 1.4.3 51.3.7 111 .9 89.2.2 109.8 0 115.6-1.2 7.4-1.4 22.1-6.1 24-7.6.6-.5 3.3-2.1 6-3.5 13.7-7.2 28.6-22.1 35.8-35.8 1.4-2.7 3-5.4 3.5-6 1-1.2 6.5-17.3 7.7-22.6.5-1.9 1-80.3 1.1-174.2.3-170.1.3-170.6-1.7-176.1-2.7-7.3-8.8-13.9-15.8-17.4l-5.7-2.8-167.5-.2c-164.9-.2-167.6-.2-172.6 1.8zM128 240v80H64V160h64v80z"/></svg>